# xmcd CD database file
#
# Track frame offsets:
#	150
#	14497
#	29774
#	47723
#	62273
#	78495
#	93112
#	109891
#	116521
#	131640
#	145727
#	162574
#	177931
#	191596
#	208235
#	224102
#	239024
#	254606
#	271761
#	288978
#
# Disc length: 4381 seconds
#
# Revision: 2
# Processed by: cddbd v1.5.1PL0 Copyright (c) Steve Scherf et al.
# Submitted via: CDex 1.51
#
DISCID=35111b14
DTITLE=Jean Michel Jarre - Images - The Best of
DYEAR=1998
DGENRE=New Age
TTITLE0=Oxygene (Part 4)
TTITLE1=Equinoxe (Part 5)
TTITLE2=Chants Magnetiques 
TTITLE3=Oxygene (Part 2)
TTITLE4=Computer Week End
TTITLE5=Equinoxe (Part 4)
TTITLE6=Ethnicolor 1
TTITLE7=L`Orchestre Sous La Pluis
TTITLE8=Orient Express
TTITLE9=Calypso 1
TTITLE10=Calypso 3 (Fin De Siecle)
TTITLE11=Fourth Rendez-vous
TTITLE12=Moon Machine
TTITLE13=Eldorado
TTITLE14=Globe Trotter
TTITLE15=Wooloomooloo
TTITLE16=Blah Blah Cafe
TTITLE17=London Kid
TTITLE18=Zoolookologie
TTITLE19=Second Rendez-vous
EXTD=YEAR: 1998
EXTT0=
EXTT1=
EXTT2=
EXTT3=
EXTT4=
EXTT5=
EXTT6=
EXTT7=
EXTT8=
EXTT9=
EXTT10=
EXTT11=
EXTT12=
EXTT13=
EXTT14=
EXTT15=
EXTT16=
EXTT17=
EXTT18=
EXTT19=
PLAYORDER=
